<svg width="28" height="28" viewBox="0 0 28 28" fill="none" xmlns="http://www.w3.org/2000/svg">
<path d="M14 17.5C10.3016 17.5 7.01257 19.2857 4.91863 22.057C4.46796 22.6534 4.24262 22.9516 4.24999 23.3547C4.25569 23.6661 4.45122 24.0589 4.69623 24.2511C5.01335 24.5 5.45281 24.5 6.33173 24.5H21.6682C22.5471 24.5 22.9866 24.5 23.3037 24.2511C23.5487 24.0589 23.7442 23.6661 23.75 23.3547C23.7573 22.9516 23.532 22.6534 23.0813 22.057C20.9874 19.2857 17.6983 17.5 14 17.5Z" stroke="#6E7388" stroke-width="2" stroke-linecap="round" stroke-linejoin="round"/>
<path d="M14 14C16.8995 14 19.25 11.6495 19.25 8.75C19.25 5.85051 16.8995 3.5 14 3.5C11.1005 3.5 8.74997 5.85051 8.74997 8.75C8.74997 11.6495 11.1005 14 14 14Z" stroke="#6E7388" stroke-width="2" stroke-linecap="round" stroke-linejoin="round"/>
</svg>
