<svg width="72" height="73" viewBox="0 0 72 73" fill="none" xmlns="http://www.w3.org/2000/svg">
<path d="M64.69 30.715C65.13 32.695 65.13 35.555 64.69 39.295C64.58 39.515 64.58 39.625 64.58 39.625C64.58 39.845 64.47 39.955 64.47 39.955C63.81 42.705 62.38 44.905 60.18 46.665C57.98 48.425 55.56 49.195 52.7 49.195C52.26 49.195 52.04 49.085 52.04 48.755C51.93 48.425 52.04 48.095 52.26 47.875C53.36 47.215 54.46 46.115 55.45 44.795C56.33 43.475 56.66 41.935 56.33 40.175C54.35 39.955 52.7 39.185 51.38 37.755C50.06 36.325 49.4 34.565 49.4 32.475C49.4 30.385 50.06 28.625 51.6 27.085C53.14 25.545 54.9 24.775 57.1 24.775C60.73 24.775 63.26 26.755 64.69 30.715Z" fill="#AEC3AA"/>
<path d="M38.8849 26.4C37.7849 26.4 36.8499 26.015 36.0799 25.245C35.3099 24.475 34.9249 23.54 34.9249 22.44V3.96005C34.9249 2.86005 35.3099 1.92505 36.0799 1.15505C36.8499 0.385047 37.7849 4.54187e-05 38.8849 4.54187e-05C39.9849 4.54187e-05 40.9199 0.385047 41.6899 1.15505C42.4599 1.92505 42.8449 2.86005 42.8449 3.96005V22.44C42.8449 23.54 42.4599 24.475 41.6899 25.245C40.9199 26.015 39.9849 26.4 38.8849 26.4ZM6.37994 27.335H13.6949V23.98H4.94994C4.06994 23.98 3.29994 23.705 2.69494 23.045C2.03494 22.44 1.75994 21.67 1.75994 20.79C1.75994 19.91 2.03494 19.14 2.69494 18.48C3.29994 17.875 4.06994 17.545 4.94994 17.545H29.4799C30.3599 17.545 31.1299 17.875 31.7899 18.48C32.3949 19.14 32.7249 19.91 32.7249 20.79C32.7249 21.67 32.3949 22.44 31.7899 23.045C31.1299 23.705 30.3599 23.98 29.4799 23.98H20.7899V27.335H35.5299C37.5099 27.335 39.2699 28.05 40.6999 29.48C42.1299 30.91 42.8449 32.56 42.8449 34.54V40.7C42.8449 41.69 42.4599 42.57 41.7449 43.23C41.0299 43.945 40.2049 44.275 39.2149 44.275H6.37994C5.33494 44.275 4.45494 43.945 3.73994 43.23C3.02494 42.57 2.69494 41.69 2.69494 40.7V30.965C2.69494 29.975 3.02494 29.15 3.73994 28.435C4.45494 27.72 5.33494 27.335 6.37994 27.335ZM35.7499 34.98C35.7499 33.99 35.1449 33.385 33.9349 33.165H9.78994V38.445H35.7499V34.98ZM9.45994 14.795C8.13994 16.555 6.54494 16.995 4.56494 16.06C2.80494 14.85 2.36494 13.2 3.29994 11.22L6.21494 6.32505C7.36994 4.34505 8.90994 2.80505 10.8899 1.70505C12.8699 0.605047 14.9599 4.54187e-05 17.2149 4.54187e-05C19.4699 4.54187e-05 21.5599 0.605047 23.5399 1.70505C25.5199 2.80505 27.0599 4.34505 28.2699 6.32505L31.1299 11.22C32.0099 13.2 31.6249 14.85 29.8649 16.06C29.2599 16.39 28.6549 16.555 28.1049 16.555C26.8949 16.555 25.8499 16.005 25.0249 14.795L22.1649 9.90005C20.8449 8.03005 19.1949 7.09505 17.2149 7.09505C15.1799 7.09505 13.5299 8.03005 12.3199 9.90005L9.45994 14.795Z" fill="#414456"/>
</svg>
